<svg width="948" height="607" viewBox="0 0 948 607" fill="none" xmlns="http://www.w3.org/2000/svg">
<path d="M667.758 246.017C671.529 239.31 676.376 233.885 682.02 229.126C686.585 225.276 691.827 222.816 697.962 222.826C703.925 222.835 707.064 226.557 706.087 232.308C705.17 237.701 702.135 242.05 698.47 246.001C693.161 251.726 687.154 256.681 680.346 260.619C675.677 263.319 672.621 266.915 672.119 273.203C675.402 269.929 678.164 267.02 681.099 264.288C684.849 260.796 689.199 258.308 694.405 257.452C701.123 256.347 705.1 259.77 704.913 266.394C704.794 270.599 702.931 274.232 701.217 277.924C699.375 281.892 697.121 285.681 695.973 289.947C695.481 291.777 695.907 293.233 697.41 294.346C698.833 295.399 700.308 295.032 701.759 294.303C703.585 293.386 704.944 291.992 706.222 290.452C709.381 286.645 713.109 283.564 718.01 282.063C725.519 279.764 732.187 284.289 732.629 291.879C733.227 302.168 727.907 309.456 719.846 314.982C707.414 323.505 692.96 326.795 678.251 329C653.065 332.776 627.604 333.08 602.231 334.585C564.859 336.803 527.551 339.761 490.631 346.231C472.72 349.369 454.82 352.599 437.505 358.137C423.58 362.591 409.607 367.237 400.264 379.693C395.188 377.296 394.943 372.845 394.752 368.542C394.55 364.006 396.417 360.071 399.13 356.44C401.811 352.849 406.044 351.111 409.577 348.16C408.882 347.428 408.468 346.754 407.859 346.384C398.737 340.836 395.963 332.344 395.857 322.445C395.668 304.747 401.223 288.386 407.924 272.299C410.81 265.372 414.071 258.593 417.566 250.851C414.193 252.177 413.002 254.418 411.608 256.363C400.872 271.341 392.661 287.697 384.361 304.005C381.339 309.942 378.141 315.789 373.556 320.768C370.821 323.738 367.658 326.096 363.474 326.698C362.093 326.896 360.625 326.773 359.689 325.535C358.716 324.248 359.622 323.219 360.478 322.367C366.353 316.523 369.018 309.112 370.499 301.394C373.644 285 376.334 268.523 379.193 252.077C379.293 251.496 379.205 250.884 379.205 249.719C376.907 252.056 376.196 254.708 375.136 257.142C367.113 275.556 359.611 294.232 348.307 311.072C338.988 324.955 327.44 336.412 310.779 341.811C302.351 344.542 293.76 344.683 285.281 342.291C271.79 338.485 264.028 325.218 265.679 309.762C267.088 296.566 272.033 284.544 279.374 273.686C304.909 235.916 339.905 211.307 385.874 202.534C391.789 201.406 397.793 200.982 403.746 202.525C409.621 204.048 410.917 206.261 408.744 211.677C402.738 226.644 400.126 242.363 397.726 258.136C397.688 258.387 397.933 258.679 398.131 259.156C400.263 259.477 400.793 257.657 401.661 256.421C407.776 247.71 414.177 239.208 422.451 232.306C428.903 226.925 436.363 223.839 445.018 225.45C451.524 226.661 452.126 228.538 448.435 233.795C434.763 253.273 427.797 275.335 422.467 298.022C420.63 305.84 419.96 313.765 420.57 321.769C421.441 333.217 429.331 339.206 440.804 336.687C466.405 331.068 492.295 327.321 518.426 325.325C532.553 324.246 546.703 323.268 560.895 323.027C590.188 322.53 619.492 322.203 648.763 321.083C664.73 320.472 680.81 319.811 696.444 315.882C705.379 313.636 713.721 310.27 719.983 303.257C722.04 300.953 723.786 298.48 723.763 295.252C723.735 291.331 721.007 289.567 717.246 290.991C714.232 292.132 712.359 294.566 710.287 296.791C704.704 302.786 697.955 306.158 689.436 305.632C683.815 305.285 680.334 301.963 680.169 296.411C679.978 289.965 683.211 284.574 685.887 278.987C687.448 275.729 690.453 272.805 689.165 268.459C686.387 267.905 684.685 269.487 683.111 271.068C674.31 279.91 667.624 289.785 667.291 302.668C667.254 304.13 666.807 305.277 665.372 305.981C659.55 308.842 651.635 304.467 651.48 298.014C651.229 287.631 654.435 277.816 657.541 268.068C659.968 260.451 663.302 253.145 667.758 246.017ZM366.321 252.233C371.586 240.461 376.845 228.687 380.455 216.252C377.489 215.073 375.471 216.025 373.445 216.619C366.924 218.532 360.799 221.349 354.75 224.367C328.082 237.672 307.981 257.43 294.257 283.316C289.985 291.374 287.058 299.969 287.351 309.241C287.589 316.803 292.518 322.517 299.226 323.202C307.019 323.998 314.258 322.548 320.67 317.923C327.304 313.139 332.789 307.263 337.732 300.873C349.222 286.02 358.034 269.663 366.321 252.233ZM695.512 235.54C695.765 234.164 696.788 232.744 694.847 230.992C686.235 236.969 681.341 245.357 677.925 254.805C685.658 250.258 691.126 243.793 695.512 235.54Z" fill="black"/>
<path d="M453.882 265.418C458.941 264.141 463.629 263.184 468.018 266.216C469.277 267.086 470.314 266.778 471.318 265.861C472.716 264.582 474.401 263.878 476.261 263.584C482.128 262.658 483.955 264.763 482.071 270.215C478.723 279.901 475.341 289.577 472.081 299.292C471.248 301.773 469.935 304.304 471.191 307.302C474.522 307.311 476.16 305.16 477.883 303.064C483.81 295.851 485.202 286.952 487.538 278.412C488.611 274.493 489.405 270.501 490.477 266.582C491.663 262.242 499.906 259.584 503.574 262.295C505.033 263.373 504.939 264.933 504.624 266.424C504.201 268.422 503.609 270.387 502.74 273.698C505.997 270.1 508.202 267.449 510.641 265.023C513.505 262.176 516.891 260.081 521.131 259.881C527.871 259.563 531.626 263.583 530.544 270.08C529.374 277.109 526.004 283.478 523.904 290.233C523.011 293.103 521.662 295.852 521.484 298.904C521.415 300.083 521.159 301.44 522.565 302.084C523.879 302.685 524.964 301.944 525.891 301.12C528.475 298.826 530.16 296.26 530.227 292.555C530.518 276.321 543.218 260.776 559.154 256.812C559.751 256.664 560.343 256.413 560.946 256.382C565.256 256.165 569.887 255.447 572.958 259.285C575.958 263.035 574.952 267.276 573.255 271.308C568.862 281.744 560.792 287.831 549.593 290.127C545.508 290.965 544.646 292.766 546.678 296.369C547.37 297.596 548.345 298.516 549.598 299.179C557.026 303.109 569.949 296.079 570.959 287.881C572.766 273.22 579.903 261.828 593.606 254.879C596.775 253.273 600.202 252.518 603.864 252.585C612.494 252.744 617.018 258.225 614.467 266.33C610.976 277.421 602.801 283.993 591.751 287.635C589.772 288.287 586.083 287.202 586.385 291.093C586.648 294.489 589.002 296.421 592.193 297.382C597.384 298.946 604.42 295.385 606.428 290.234C608.551 284.789 612.833 282.091 618.589 282.544C621.194 282.749 623.355 283.792 624.92 285.827C626.731 288.182 627.506 290.872 625.442 293.295C623.24 295.883 621.368 293.206 619.218 292.231C616.144 294.089 616.237 295.971 619.176 297.895C622.637 300.16 627.256 299.836 630.238 296.964C633.134 294.174 632.635 290.811 630.833 287.828C628.65 284.214 626.072 280.806 623.456 277.465C613.882 265.232 618.559 253.011 634.046 249.866C639.016 248.857 643.913 248.891 648.538 251.008C652.595 252.865 655.171 255.926 654.807 260.613C654.499 264.581 653.058 267.907 648.99 269.609C645.915 270.895 643.182 270.218 640.927 268.036C638.606 265.791 639.132 263.499 641.277 261.317C642.201 260.376 642.464 259.166 641.569 258.03C640.726 256.96 639.481 256.846 638.208 256.995C634.083 257.479 632.055 261.848 634.347 266.172C635.816 268.945 638.014 271.351 639.902 273.909C640.261 274.396 640.707 274.821 641.103 275.282C648.573 283.956 650.382 291.783 646.423 298.291C642.135 305.34 630.745 309.659 621.096 307.878C615.835 306.907 611.059 304.994 607.201 300.703C595.399 308.782 583.613 311.994 572.22 299.384C559.742 309.831 546.636 316.595 531.318 304.062C529.656 304.371 528.958 305.87 527.862 306.864C525.238 309.244 522.463 311.381 518.971 312.393C509.769 315.06 503.915 310.219 505.064 300.936C505.892 294.243 509.102 288.356 511.654 282.242C512.956 279.123 514.738 276.127 515.033 272.616C512.591 272.032 511.548 273.552 510.516 274.733C502.016 284.465 496.6 295.59 494.872 308.331C494.563 310.614 495.409 313.545 492.028 314.217C488.379 314.942 484.627 315.331 481.611 312.398C480.975 311.779 480.589 310.915 479.898 309.879C472.88 315.288 466.075 322.568 456.322 313.701C455.099 313.897 454.115 315.152 452.884 315.999C447.292 319.848 441.167 321.997 434.689 318.935C428.345 315.937 427.048 309.738 426.946 303.564C426.683 287.636 438.323 271.174 453.882 265.418ZM458.778 293.666C460.818 286.595 464.477 279.982 465.695 272.474C461.457 271.48 458.481 272.677 455.869 275.049C447.621 282.535 444.166 292.029 443.809 302.773C443.732 305.073 444.072 307.481 446.691 308.362C449.482 309.302 451.355 307.508 452.945 305.601C455.711 302.281 456.974 298.227 458.778 293.666ZM593.769 279C598.717 275.288 602.716 270.802 604.957 265.075C605.675 263.242 606.778 260.811 604.46 259.335C602.404 258.026 600.655 259.79 599.18 260.958C596.066 263.423 593.578 266.472 591.655 269.91C589.714 273.378 587.537 276.806 587.945 281.194C588.696 281.194 589.198 281.329 589.567 281.17C590.822 280.629 592.03 279.984 593.769 279ZM564.249 264.113C563.159 262.755 561.695 262.848 560.548 263.701C553.657 268.825 548.831 275.278 546.896 283.914C555.739 282.595 564.571 272.713 564.249 264.113Z" fill="black"/>
<path d="M615.712 230.581C592.772 232.73 570.228 234.692 547.726 237.028C521.56 239.744 495.208 241.403 469.761 248.705C459.666 251.602 449.796 254.996 441.659 261.895C440.993 262.46 440.31 263.191 438.65 262.522C439.69 257.963 442.286 254.196 445.506 250.835C455.75 240.142 469.101 235.24 483.265 232.128C490.158 230.613 497.205 229.769 504.181 228.613C505.918 228.325 507.467 228.318 508.77 229.863C514.699 236.895 522.055 235.422 529.473 232.942C531.05 232.415 532.874 231.702 533.852 230.505C540.184 222.754 549.205 223.495 557.851 222.921C577.053 221.647 596.193 219.751 615.329 217.749C632.482 215.955 649.629 214.199 666.428 210.204C674.376 208.313 682.228 206.083 689.125 201.552C693.349 198.777 696.366 195.351 694.894 189.89C694.398 188.051 693.92 186.227 696.182 185.255C698.307 184.342 700.406 184.626 702.284 186.026C705.655 188.539 707.211 194.363 705.566 198.816C703.374 204.75 698.919 208.847 693.711 212.267C682.939 219.338 670.489 221.734 658.116 224.265C644.24 227.104 630.177 228.804 615.712 230.581Z" fill="black"/>
<path d="M524.707 210.876C527.29 210.227 529.519 209.642 531.781 209.229C534.101 208.804 535.919 207.998 536.021 204.914C530.776 206.233 525.437 209.425 520.484 204.013C517.399 206.641 514.904 209.793 510.953 211.075C506.49 212.524 503.149 211.064 500.446 207.303C498.834 208.762 497.597 210.094 496.148 211.15C493.121 213.356 489.743 214.402 486.242 212.375C482.546 210.236 482.538 206.658 483.421 203.165C484.155 200.259 485.51 197.508 486.389 194.629C486.877 193.034 488.387 191.443 486.935 189.587C484.909 189.324 484.268 190.882 483.45 192.072C479.684 197.543 477.165 203.503 477.138 210.161C477.121 214.158 474.965 215.122 471.545 214.798C468.08 214.47 465.695 212.564 466.656 209.134C469.093 200.436 471.812 191.799 474.846 183.282C476.146 179.63 480.409 179.572 485.563 182.685C487.168 181.625 488.739 180.402 490.481 179.486C492.444 178.453 494.642 178.067 496.664 179.302C498.912 180.676 498.686 183.043 498.174 185.025C496.821 190.269 495.088 195.418 493.623 200.636C493.125 202.41 491.931 204.353 494.182 206.232C498.54 204.708 499.048 200.906 499.529 197.235C500.747 187.933 502.996 178.907 506.805 170.286C508.652 166.105 511.003 162.17 514.758 159.361C517.657 157.194 521.012 155.701 524.595 157.852C528.162 159.994 528.369 163.488 527.669 167.066C525.947 175.879 521.392 183.298 515.62 190.116C513.383 192.757 510.536 195.014 509.788 198.645C509.428 200.394 509.619 202.035 511.093 203.165C512.886 204.54 514.384 203.256 515.569 202.148C521.455 196.642 524.265 189.512 526.462 182.076C527.004 180.241 526.977 178.024 529.089 177.059C531.256 176.07 533.594 175.675 535.683 177.211C537.637 178.648 537.077 180.592 536.594 182.574C535.445 187.281 533.543 191.72 531.822 196.229C531.277 197.656 529.893 199.14 531.849 201.219C536.062 199.348 538.248 195.629 540.305 191.853C542.207 188.365 543.056 184.511 543.843 180.682C544.513 177.428 546.465 175.945 549.706 176.308C553.301 176.709 553.29 179.251 553.101 182.045C552.731 187.516 551.03 192.647 549.381 197.813C548.808 199.606 547.752 201.364 548.556 203.693C552.017 202.076 554.299 199.575 555.883 196.404C556.49 195.189 556.883 193.871 557.519 192.673C558.153 191.479 558.92 190.012 560.565 190.402C562.477 190.854 562.31 192.596 562.302 194.126C562.291 196.316 561.446 198.245 560.374 200.087C557.763 204.577 553.867 207.786 549.062 209.7C545.689 211.045 543.588 213.237 541.81 216.213C537.621 223.222 532.317 229.163 524.335 232.354C519.562 234.261 515.082 233.907 512.757 231.183C510.065 228.028 510.077 222.992 512.88 218.967C515.686 214.936 519.741 212.568 524.707 210.876ZM531.353 216.337C531.072 214.941 529.987 215.258 529.23 215.596C525.405 217.304 522.081 219.682 519.722 223.137C518.977 224.229 518.134 225.627 519.35 226.827C520.581 228.042 521.997 227.228 523.093 226.439C526.605 223.912 529.146 220.564 531.353 216.337ZM519.43 175.752C520.922 172.471 522.786 169.257 521.734 164.462C516.646 170.305 514.796 176.313 513.888 182.767C517.126 181.625 517.741 178.71 519.43 175.752Z" fill="black"/>
<path d="M459.625 207.196C454.224 214.3 448.024 219.54 438.933 220.894C426.078 222.808 416.934 215.18 417.291 202.226C417.567 192.227 421.748 183.488 427.921 175.773C434.641 167.376 442.45 160.22 453.6 157.568C465.747 154.679 474.168 161.814 472.777 173.982C471.395 186.066 466.557 196.854 459.625 207.196ZM439.258 190.162C438.063 187.557 438.94 184.607 438.22 181.57C434.452 185.567 432.655 190.119 431.336 199.78C430.676 204.611 431.692 209.352 436.084 212.169C440.586 215.057 445.328 213.34 448.901 210.292C461.146 199.844 466.542 186.263 466.108 170.602C465.951 164.921 461.462 163.234 456.67 166.403C451.069 170.106 448.983 175.687 448.457 181.873C447.956 187.783 449.905 192.557 456.824 193.916C451.182 200.865 443.572 199.163 439.258 190.162Z" fill="black"/>
</svg>
