<svg width="84" height="15" viewBox="0 0 84 15" fill="none" xmlns="http://www.w3.org/2000/svg">
<path d="M5.154 12.198C3.89 12.198 2.826 11.78 1.962 10.944C1.098 10.108 0.666 9.024 0.666 7.692C0.666 6.396 1.092 5.324 1.944 4.476C2.8 3.628 3.87 3.204 5.154 3.204C6.414 3.204 7.476 3.626 8.34 4.47C9.208 5.31 9.642 6.384 9.642 7.692C9.642 8.976 9.212 10.048 8.352 10.908C7.492 11.768 6.426 12.198 5.154 12.198ZM5.154 11.112C6.09 11.112 6.87 10.8 7.494 10.176C8.122 9.552 8.436 8.724 8.436 7.692C8.436 6.676 8.118 5.856 7.482 5.232C6.846 4.608 6.07 4.296 5.154 4.296C4.226 4.296 3.446 4.602 2.814 5.214C2.186 5.826 1.872 6.652 1.872 7.692C1.872 8.728 2.188 9.558 2.82 10.182C3.456 10.802 4.234 11.112 5.154 11.112Z" fill="#216EEE"/>
<path d="M11.2305 12V5.682H12.3225V6.786L12.1605 6.576H12.3585C12.5545 6.26 12.8445 6 13.2285 5.796C13.6125 5.588 14.0405 5.484 14.5125 5.484C15.2605 5.484 15.8365 5.688 16.2405 6.096C16.6445 6.5 16.8465 7.062 16.8465 7.782V12H15.7005V8.016C15.7005 7.52 15.5805 7.14 15.3405 6.876C15.1005 6.612 14.7165 6.48 14.1885 6.48C13.6685 6.48 13.2345 6.656 12.8865 7.008C12.5425 7.36 12.3705 7.8 12.3705 8.328V12H11.2305ZM18.6133 12V3.21H19.7533V12H18.6133ZM21.9499 14.622L23.5459 11.238L23.5639 12.018L20.8159 5.682H22.0279L23.7139 9.84L23.9059 10.386H23.9359L24.1459 9.834L25.8319 5.682H27.0199L23.1259 14.622H21.9499ZM28.2287 12.072C27.9847 12.072 27.7767 11.986 27.6047 11.814C27.4327 11.642 27.3467 11.432 27.3467 11.184C27.3467 10.944 27.4327 10.74 27.6047 10.572C27.7767 10.4 27.9847 10.314 28.2287 10.314C28.4807 10.314 28.6907 10.4 28.8587 10.572C29.0307 10.74 29.1167 10.944 29.1167 11.184C29.1167 11.432 29.0307 11.642 28.8587 11.814C28.6907 11.986 28.4807 12.072 28.2287 12.072ZM31.0583 12V3.408H32.5883L35.4683 10.53H35.5043L38.3903 3.408H39.8783V12H38.7563V6.942L38.8103 5.106H38.7743L35.9783 12H34.9703L32.1503 5.094H32.1143L32.1803 6.942V12H31.0583ZM43.8653 12.198C43.1813 12.198 42.6173 12.006 42.1733 11.622C41.7333 11.234 41.5133 10.706 41.5133 10.038C41.5133 9.374 41.7553 8.848 42.2393 8.46C42.7233 8.072 43.3493 7.878 44.1173 7.878C44.4973 7.878 44.8473 7.922 45.1673 8.01C45.4913 8.094 45.7693 8.208 46.0013 8.352V7.938C46.0013 7.47 45.8453 7.112 45.5333 6.864C45.2213 6.612 44.8213 6.486 44.3333 6.486C44.0733 6.486 43.8473 6.516 43.6553 6.576C43.4633 6.632 43.2993 6.702 43.1633 6.786C43.0273 6.866 42.8833 6.97 42.7313 7.098C42.5793 7.226 42.5033 7.29 42.5033 7.29L41.7893 6.588C41.7893 6.588 41.8753 6.51 42.0473 6.354C42.2193 6.198 42.4193 6.052 42.6473 5.916C42.8793 5.776 43.1293 5.668 43.3973 5.592C43.6693 5.516 44.0053 5.478 44.4053 5.478C45.2133 5.478 45.8673 5.696 46.3673 6.132C46.8673 6.568 47.1173 7.17 47.1173 7.938V12H46.0313V10.716L46.2893 11.136H45.9953C45.8113 11.428 45.5333 11.678 45.1613 11.886C44.7893 12.094 44.3573 12.198 43.8653 12.198ZM44.0813 11.25C44.6093 11.25 45.0633 11.062 45.4433 10.686C45.8233 10.306 46.0133 9.86 46.0133 9.348V9.312C45.8093 9.136 45.5553 9 45.2513 8.904C44.9513 8.804 44.6413 8.754 44.3213 8.754C43.8093 8.754 43.4073 8.864 43.1153 9.084C42.8233 9.304 42.6773 9.616 42.6773 10.02C42.6773 10.396 42.8033 10.696 43.0553 10.92C43.3073 11.14 43.6493 11.25 44.0813 11.25ZM48.8828 12V5.682H49.9748V6.786L49.8128 6.576H50.0108C50.2068 6.26 50.4968 6 50.8808 5.796C51.2648 5.588 51.6928 5.484 52.1648 5.484C52.9128 5.484 53.4888 5.688 53.8928 6.096C54.2968 6.5 54.4988 7.062 54.4988 7.782V12H53.3528V8.016C53.3528 7.52 53.2328 7.14 52.9928 6.876C52.7528 6.612 52.3688 6.48 51.8408 6.48C51.3208 6.48 50.8868 6.656 50.5388 7.008C50.1948 7.36 50.0228 7.8 50.0228 8.328V12H48.8828ZM59.1097 12.198C58.1457 12.198 57.3617 11.888 56.7577 11.268C56.1577 10.644 55.8577 9.836 55.8577 8.844C55.8577 7.896 56.1497 7.1 56.7337 6.456C57.3177 5.808 58.0897 5.484 59.0497 5.484C59.9617 5.484 60.6917 5.76 61.2397 6.312C61.7877 6.864 62.0617 7.564 62.0617 8.412V9.132H56.5117V8.232H60.9217V8.226C60.8977 7.738 60.7217 7.326 60.3937 6.99C60.0697 6.654 59.6217 6.486 59.0497 6.486C58.4537 6.486 57.9637 6.696 57.5797 7.116C57.1997 7.536 57.0097 8.11 57.0097 8.838C57.0097 9.594 57.2117 10.174 57.6157 10.578C58.0237 10.982 58.5417 11.184 59.1697 11.184C59.4457 11.184 59.6877 11.15 59.8957 11.082C60.1077 11.014 60.3037 10.918 60.4837 10.794C60.6637 10.666 60.8657 10.466 61.0897 10.194L61.8997 10.764C61.6517 11.144 61.3977 11.428 61.1377 11.616C60.8777 11.8 60.5897 11.942 60.2737 12.042C59.9617 12.146 59.5737 12.198 59.1097 12.198ZM66.3636 12.198C65.3996 12.198 64.6156 11.888 64.0116 11.268C63.4116 10.644 63.1116 9.836 63.1116 8.844C63.1116 7.896 63.4036 7.1 63.9876 6.456C64.5716 5.808 65.3436 5.484 66.3036 5.484C67.2156 5.484 67.9456 5.76 68.4936 6.312C69.0416 6.864 69.3156 7.564 69.3156 8.412V9.132H63.7656V8.232H68.1756V8.226C68.1516 7.738 67.9756 7.326 67.6476 6.99C67.3236 6.654 66.8756 6.486 66.3036 6.486C65.7076 6.486 65.2176 6.696 64.8336 7.116C64.4536 7.536 64.2636 8.11 64.2636 8.838C64.2636 9.594 64.4656 10.174 64.8696 10.578C65.2776 10.982 65.7956 11.184 66.4236 11.184C66.6996 11.184 66.9416 11.15 67.1496 11.082C67.3616 11.014 67.5576 10.918 67.7376 10.794C67.9176 10.666 68.1196 10.466 68.3436 10.194L69.1536 10.764C68.9056 11.144 68.6516 11.428 68.3916 11.616C68.1316 11.8 67.8436 11.942 67.5276 12.042C67.2156 12.146 66.8276 12.198 66.3636 12.198ZM72.8915 12.204C72.4635 12.204 72.0915 12.146 71.7755 12.03C71.4595 11.918 71.1835 11.756 70.9475 11.544C70.7115 11.332 70.5335 11.114 70.4135 10.89C70.2975 10.666 70.2395 10.554 70.2395 10.554L71.1455 10.08C71.1455 10.08 71.1955 10.166 71.2955 10.338C71.3995 10.51 71.5255 10.666 71.6735 10.806C71.8255 10.942 72.0035 11.048 72.2075 11.124C72.4115 11.196 72.6495 11.232 72.9215 11.232C73.3255 11.232 73.6495 11.15 73.8935 10.986C74.1375 10.822 74.2595 10.596 74.2595 10.308C74.2595 10.036 74.1495 9.824 73.9295 9.672C73.7095 9.516 73.3175 9.37 72.7535 9.234C71.9095 9.026 71.3235 8.772 70.9955 8.472C70.6715 8.168 70.5095 7.764 70.5095 7.26C70.5095 6.74 70.7295 6.314 71.1695 5.982C71.6095 5.646 72.1595 5.478 72.8195 5.478C73.1715 5.478 73.4815 5.518 73.7495 5.598C74.0215 5.674 74.2675 5.792 74.4875 5.952C74.7075 6.108 74.8755 6.272 74.9915 6.444C75.1115 6.612 75.1715 6.696 75.1715 6.696L74.3195 7.212C74.3195 7.212 74.2695 7.152 74.1695 7.032C74.0735 6.908 73.9595 6.802 73.8275 6.714C73.6995 6.626 73.5535 6.56 73.3895 6.516C73.2295 6.472 73.0395 6.45 72.8195 6.45C72.4475 6.45 72.1495 6.526 71.9255 6.678C71.7015 6.83 71.5895 7.014 71.5895 7.23C71.5895 7.426 71.6675 7.6 71.8235 7.752C71.9795 7.9 72.4395 8.076 73.2035 8.28C73.9875 8.48 74.5435 8.736 74.8715 9.048C75.1995 9.356 75.3635 9.75 75.3635 10.23C75.3635 10.826 75.1295 11.304 74.6615 11.664C74.1975 12.024 73.6075 12.204 72.8915 12.204ZM76.7149 12V3.21H77.8549V6.552H77.8909C78.0829 6.248 78.3609 5.994 78.7249 5.79C79.0929 5.586 79.5249 5.484 80.0209 5.484C80.7649 5.484 81.3349 5.688 81.7309 6.096C82.1309 6.5 82.3309 7.062 82.3309 7.782V12H81.1849V8.016C81.1849 7.496 81.0569 7.11 80.8009 6.858C80.5489 6.602 80.1789 6.474 79.6909 6.474C79.1589 6.474 78.7189 6.658 78.3709 7.026C78.0269 7.394 77.8549 7.828 77.8549 8.328V12H76.7149Z" fill="white"/>
<circle cx="5" cy="8" r="4" fill="#216EEE"/>
</svg>
